<svg id="Layer_1" data-name="Layer 1" xmlns="http://www.w3.org/2000/svg" xmlns:xlink="http://www.w3.org/1999/xlink" viewBox="0 0 644.42 224.11"><defs><style>.cls-1{fill:url(#linear-gradient);}.cls-2{fill:url(#linear-gradient-2);}.cls-3{fill:url(#linear-gradient-3);}.cls-4{fill:url(#linear-gradient-4);}.cls-5{fill:url(#linear-gradient-5);}.cls-6{fill:url(#linear-gradient-6);}.cls-7{fill:url(#linear-gradient-7);}.cls-8{fill:url(#linear-gradient-8);}.cls-9{fill:url(#linear-gradient-9);}.cls-10{fill:url(#linear-gradient-10);}.cls-11{fill:url(#linear-gradient-11);}.cls-12{fill:url(#linear-gradient-12);}.cls-13{fill:url(#linear-gradient-13);}.cls-14{fill:url(#linear-gradient-14);}.cls-15{fill:url(#linear-gradient-15);}.cls-16{fill:url(#linear-gradient-16);}.cls-17{fill:url(#linear-gradient-17);}.cls-18{fill:url(#linear-gradient-18);}.cls-19{fill:url(#linear-gradient-19);}.cls-20{fill:url(#linear-gradient-20);}.cls-21{fill:url(#linear-gradient-21);}.cls-22{fill:url(#linear-gradient-22);}.cls-23{fill:url(#linear-gradient-23);}.cls-24{fill:url(#linear-gradient-24);}.cls-25{fill:#8d8c88;}</style><linearGradient id="linear-gradient" x1="421.76" y1="156.26" x2="491.36" y2="156.26" gradientUnits="userSpaceOnUse"><stop offset="0" stop-color="#399eca"/><stop offset="1" stop-color="#303b71"/></linearGradient><linearGradient id="linear-gradient-2" x1="491.66" y1="51.31" x2="560.81" y2="51.31" xlink:href="#linear-gradient"/><linearGradient id="linear-gradient-3" x1="463.87" y1="93.02" x2="533.13" y2="93.02" xlink:href="#linear-gradient"/><linearGradient id="linear-gradient-4" x1="477.88" y1="72.16" x2="546.87" y2="72.16" xlink:href="#linear-gradient"/><linearGradient id="linear-gradient-5" x1="450.4" y1="113.6" x2="519.21" y2="113.6" xlink:href="#linear-gradient"/><linearGradient id="linear-gradient-6" x1="435.91" y1="134.81" x2="505.51" y2="134.81" xlink:href="#linear-gradient"/><linearGradient id="linear-gradient-7" x1="466.08" y1="9.16" x2="644.42" y2="9.16" xlink:href="#linear-gradient"/><linearGradient id="linear-gradient-8" x1="451.85" y1="30.44" x2="630.36" y2="30.44" xlink:href="#linear-gradient"/><linearGradient id="linear-gradient-9" x1="281.96" y1="9.02" x2="461.66" y2="9.02" xlink:href="#linear-gradient"/><linearGradient id="linear-gradient-10" x1="254.02" y1="61.66" x2="427.02" y2="61.66" xlink:href="#linear-gradient"/><linearGradient id="linear-gradient-11" x1="212.56" y1="103.48" x2="413.44" y2="103.48" xlink:href="#linear-gradient"/><linearGradient id="linear-gradient-12" x1="267.9" y1="30.22" x2="447.66" y2="30.22" xlink:href="#linear-gradient"/><linearGradient id="linear-gradient-13" x1="189.89" y1="30.06" x2="259.21" y2="30.06" xlink:href="#linear-gradient"/><linearGradient id="linear-gradient-14" x1="203.85" y1="8.91" x2="273.22" y2="8.91" xlink:href="#linear-gradient"/><linearGradient id="linear-gradient-15" x1="134.21" y1="114.04" x2="204.24" y2="114.04" xlink:href="#linear-gradient"/><linearGradient id="linear-gradient-16" x1="175.89" y1="51.3" x2="245.07" y2="51.3" xlink:href="#linear-gradient"/><linearGradient id="linear-gradient-17" x1="162.4" y1="71.99" x2="231.24" y2="71.99" xlink:href="#linear-gradient"/><linearGradient id="linear-gradient-18" x1="226.46" y1="93.07" x2="295.17" y2="93.07" xlink:href="#linear-gradient"/><linearGradient id="linear-gradient-19" x1="148.25" y1="93.07" x2="217.39" y2="93.07" xlink:href="#linear-gradient"/><linearGradient id="linear-gradient-20" x1="240.5" y1="72.14" x2="308.82" y2="72.14" xlink:href="#linear-gradient"/><linearGradient id="linear-gradient-21" x1="0" y1="156.17" x2="174.17" y2="156.17" xlink:href="#linear-gradient"/><linearGradient id="linear-gradient-22" x1="14.35" y1="134.4" x2="188.68" y2="134.4" xlink:href="#linear-gradient"/><linearGradient id="linear-gradient-23" x1="198.96" y1="135.02" x2="378.66" y2="135.02" xlink:href="#linear-gradient"/><linearGradient id="linear-gradient-24" x1="184.9" y1="156.22" x2="364.66" y2="156.22" xlink:href="#linear-gradient"/></defs><title>logo</title><polygon class="cls-1" points="421.76 165.29 479.39 165.29 491.36 147.22 433.73 147.22 421.76 165.29"/><path class="cls-2" d="M491.66,60h57.63l11.51-17.31H503.18Z"/><path class="cls-3" d="M463.87,101.77h57.63l11.63-17.49H475.5Z"/><path class="cls-4" d="M477.88,80.7H535.5l11.36-17.09H489.24Z"/><path class="cls-5" d="M450.4,122H508l11.18-16.81H461.58Z"/><polygon class="cls-6" points="435.92 143.84 493.54 143.84 505.51 125.78 447.88 125.78 435.92 143.84"/><polygon class="cls-7" points="616.21 0.2 614.87 2.2 474.97 2.2 466.08 15.64 605.82 15.64 604.15 18.11 632.37 18.11 644.42 0.2 616.21 0.2"/><polygon class="cls-8" points="600.7 23.42 460.93 23.42 451.85 37.16 591.45 37.16 589.94 39.4 618.3 39.4 630.36 21.48 602 21.48 600.7 23.42"/><path class="cls-9" d="M461.66.12H293.73L282,17.92H449.88Z"/><path class="cls-10" d="M369.43,63.62,323.15,42.45s-57.33,0-57.43,0L254,60.13h57.12l46.75,20.74,57.78-.09L427,63.62Z"/><path class="cls-11" d="M281.68,105.07s-57.33,0-57.43,0l-11.69,17.68h57.69l74.06-21.3,57.78-.09,11.35-17.16h-57.6Z"/><path class="cls-12" d="M268.45,38.31l-.55.84H435.84l.62-.93,11.2-16.94H279.71l-1.87,2.83-.67,1-8.07,12.2Z"/><path class="cls-13" d="M248.12,37.95l6.62-10,.2-.3,2.76-4.18,1.5-2.26H201.63L189.89,38.94h57.58Z"/><path class="cls-14" d="M262.08,16.84,273.22,0H215.64L203.85,17.83h57.58Z"/><path class="cls-15" d="M192.68,122.53h0l11.55-17.46H146.08l-11.87,18h58.16Z"/><path class="cls-16" d="M234.17,59l2.58-3.91L239,51.76l.82-1.24,5.26-8H187.49L175.89,60h57.62Z"/><path class="cls-17" d="M220.64,79.51l.54-.82,10.06-15.21H173.72c-3.71,5.65-7.43,11.11-11.31,17H220Z"/><polygon class="cls-18" points="226.46 101.8 283.63 101.8 295.17 84.34 238.01 84.34 226.46 101.8"/><path class="cls-19" d="M217.39,84.34H159.8L148.25,101.8h57.59Z"/><path class="cls-20" d="M308.82,63.7H251.66L240.5,80.57h57.16Z"/><path class="cls-21" d="M37.53,147.41H11.6L0,164.94H25.93l1.16-1.75H165.35v-.07l.61-.92,5-7.59,2.33-3.53.86-1.37H36Z"/><path class="cls-22" d="M50.54,127.67l1.34-2H25.95l-11.6,17.53H40.29l1.25-1.89H100c25,0,79.73-.05,79.73-.05l9-13.55Z"/><path class="cls-23" d="M378.66,126.12H210.73L199,143.92H366.88Z"/><path class="cls-24" d="M185.45,164.31l-.55.84H352.84l.62-.93,11.2-16.94H196.71l-1.87,2.83-.67,1-8.07,12.2Z"/><path class="cls-25" d="M108.14,181.9h4.45v24.92q0,5.05-2.57,7.9a8.87,8.87,0,0,1-6.93,2.85,9,9,0,0,1-7-2.71,10.65,10.65,0,0,1-2.49-7.49h4.42a7.45,7.45,0,0,0,1.33,4.71,4.44,4.44,0,0,0,3.7,1.69,4.36,4.36,0,0,0,3.67-1.84,8.43,8.43,0,0,0,1.38-5.15Z"/><path class="cls-25" d="M137.8,200.83H125.35V213.3h14.5v3.79H120.93V181.9h18.69v3.8H125.35V197H137.8Z"/><path class="cls-25" d="M167.56,185.7H158.3v31.4h-4.42V185.7h-9.23v-3.8h22.92Z"/><path class="cls-25" d="M204.71,185.7h-9.26v31.4H191V185.7H181.8v-3.8h22.92Z"/><path class="cls-25" d="M227.77,200.83H215.32V213.3h14.5v3.79H210.9V181.9h18.69v3.8H215.32V197h12.45Z"/><path class="cls-25" d="M258.54,205.9q-.29,5.66-3.18,8.67t-8.16,3a10.09,10.09,0,0,1-8.41-4q-3.12-4-3.12-10.92v-6.38q0-6.86,3.2-10.85a10.61,10.61,0,0,1,8.74-4q5.1,0,7.89,3t3,8.73h-4.47q-.29-4.3-1.81-6.14a5.68,5.68,0,0,0-4.64-1.84,6.31,6.31,0,0,0-5.54,2.82q-1.93,2.82-1.93,8.26v6.45q0,5.34,1.8,8.2a5.84,5.84,0,0,0,5.26,2.85q3.46,0,5-1.72t1.89-6.16Z"/><path class="cls-25" d="M288.57,217.1h-4.45V200.83H270V217.1h-4.42V181.9H270V197h14.17V181.9h4.45Z"/><path class="cls-25" d="M320.21,217.1h-4.45L301.67,190V217.1h-4.45V181.9h4.45l14.14,27.24V181.9h4.4Z"/><path class="cls-25" d="M351.76,202.59q0,7.2-3.07,11.1a10.47,10.47,0,0,1-8.73,3.89,10.6,10.6,0,0,1-8.59-3.78q-3.15-3.78-3.28-10.7v-6.62q0-7.06,3.12-11.06a10.41,10.41,0,0,1,8.7-4,10.53,10.53,0,0,1,8.67,3.83q3.11,3.83,3.18,10.94Zm-4.42-6.17q0-5.58-1.82-8.3a7,7,0,0,0-11.12,0q-1.87,2.76-1.9,8.12v6.31q0,5.39,1.87,8.22a7,7,0,0,0,11.11.22q1.79-2.61,1.86-8Z"/><path class="cls-25" d="M364,213.3h13.8v3.79H359.59V181.9H364Z"/><path class="cls-25" d="M405.42,202.59q0,7.2-3.07,11.1a10.47,10.47,0,0,1-8.73,3.89A10.6,10.6,0,0,1,385,213.8q-3.15-3.78-3.28-10.7v-6.62q0-7.06,3.12-11.06a10.41,10.41,0,0,1,8.7-4,10.53,10.53,0,0,1,8.67,3.83q3.11,3.83,3.18,10.94ZM401,196.43q0-5.58-1.82-8.3a7,7,0,0,0-11.12,0q-1.87,2.76-1.9,8.12v6.31q0,5.39,1.87,8.22a7,7,0,0,0,11.11.22q1.79-2.61,1.86-8Z"/><path class="cls-25" d="M435.27,212.72l-.77,1q-3.34,3.89-9.77,3.89a11.18,11.18,0,0,1-9-3.78q-3.25-3.78-3.32-10.7v-6.91q0-7.4,3-11.08t8.86-3.69q5,0,7.87,2.79t3.13,8h-4.42a8.9,8.9,0,0,0-1.83-5.14,5.84,5.84,0,0,0-4.73-1.85q-3.8,0-5.56,2.48t-1.84,7.92v7.18q0,5.32,2,8.16a6.73,6.73,0,0,0,5.83,2.84,7.71,7.71,0,0,0,5.44-1.73l.65-.6v-8.08h-6.43v-3.8h10.85Z"/><path class="cls-25" d="M448.11,217.1h-4.42V181.9h4.42Z"/><path class="cls-25" d="M473.73,200.83H461.28V213.3h14.5v3.79H456.86V181.9h18.69v3.8H461.28V197h12.45Z"/><path class="cls-25" d="M497.81,208.2a5.41,5.41,0,0,0-1.43-4,14.62,14.62,0,0,0-5.15-2.73,22.31,22.31,0,0,1-5.69-2.79,9.87,9.87,0,0,1-2.95-3.34,9.89,9.89,0,0,1,1.81-11.18,10.06,10.06,0,0,1,7.31-2.71,10.91,10.91,0,0,1,5.51,1.38,9.43,9.43,0,0,1,3.72,3.84,11.37,11.37,0,0,1,1.31,5.41h-4.45a7.41,7.41,0,0,0-1.57-5.05,5.7,5.7,0,0,0-4.52-1.79,5.56,5.56,0,0,0-4.16,1.5,5.76,5.76,0,0,0-1.47,4.21,4.91,4.91,0,0,0,1.6,3.73,14.14,14.14,0,0,0,4.93,2.69q5.2,1.72,7.43,4.23a9.53,9.53,0,0,1,2.24,6.58A8.9,8.9,0,0,1,499.5,215a10.7,10.7,0,0,1-7.57,2.57,12.17,12.17,0,0,1-5.67-1.34,10.14,10.14,0,0,1-4.09-3.77,10.46,10.46,0,0,1-1.49-5.57h4.45A6.83,6.83,0,0,0,487,212a6.74,6.74,0,0,0,5,1.81,5.91,5.91,0,0,0,4.4-1.5A5.57,5.57,0,0,0,497.81,208.2Z"/><path class="cls-25" d="M508.52,224.11,506,222.37a11.67,11.67,0,0,0,2.37-6.53v-4h4.38v3.5a11,11,0,0,1-1.2,4.88A11.44,11.44,0,0,1,508.52,224.11Z"/><path class="cls-25" d="M536.72,217.1H532.3V181.9h4.42Z"/><path class="cls-25" d="M568.46,217.1H564L549.92,190V217.1h-4.45V181.9h4.45l14.14,27.24V181.9h4.4Z"/><path class="cls-25" d="M599.19,205.9q-.29,5.66-3.18,8.67t-8.16,3a10.09,10.09,0,0,1-8.41-4q-3.12-4-3.12-10.92v-6.38q0-6.86,3.2-10.85a10.61,10.61,0,0,1,8.74-4q5.1,0,7.89,3t3,8.73h-4.47q-.29-4.3-1.81-6.14a5.68,5.68,0,0,0-4.64-1.84,6.31,6.31,0,0,0-5.54,2.82q-1.93,2.82-1.93,8.26v6.45q0,5.34,1.8,8.2a5.84,5.84,0,0,0,5.26,2.85q3.46,0,5-1.72t1.89-6.16Z"/></svg>