<?xml version="1.0" encoding="utf-8"?>
<!-- Generator: Adobe Illustrator 21.0.0, SVG Export Plug-In . SVG Version: 6.00 Build 0)  -->
<svg version="1.1" id="Layer_1" xmlns="http://www.w3.org/2000/svg" xmlns:xlink="http://www.w3.org/1999/xlink" x="0px" y="0px"
	 viewBox="0 0 1000 800" style="enable-background:new 0 0 1000 800;" xml:space="preserve">
<style type="text/css">
	.st0{fill:url(#SVGID_1_);}
	.st1{fill:url(#SVGID_2_);}
	.st2{fill:url(#SVGID_3_);}
	.st3{fill:url(#SVGID_4_);}
	.st4{fill:url(#SVGID_5_);}
	.st5{fill:url(#SVGID_6_);}
	.st6{fill:url(#SVGID_7_);}
	.st7{fill:url(#SVGID_8_);}
	.st8{fill:url(#SVGID_9_);}
	.st9{fill:url(#SVGID_10_);}
	.st10{fill:url(#SVGID_11_);}
	.st11{fill:url(#SVGID_12_);}
	.st12{fill:url(#SVGID_13_);}
	.st13{fill:url(#SVGID_14_);}
	.st14{fill:url(#SVGID_15_);}
	.st15{fill:url(#SVGID_16_);}
	.st16{fill:url(#SVGID_17_);}
	.st17{fill:url(#SVGID_18_);}
	.st18{fill:url(#SVGID_19_);}
	.st19{fill:url(#SVGID_20_);}
	.st20{fill:url(#SVGID_21_);}
	.st21{fill:url(#SVGID_22_);}
	.st22{fill:url(#SVGID_23_);}
	.st23{fill:url(#SVGID_24_);}
	.st24{fill:#8D8C88;}
</style>
<g>
	<g>
		<linearGradient id="SVGID_1_" gradientUnits="userSpaceOnUse" x1="589.5485" y1="444.2043" x2="659.1453" y2="444.2043">
			<stop  offset="0" style="stop-color:#399ECA"/>
			<stop  offset="1" style="stop-color:#303B71"/>
		</linearGradient>
		<polygon class="st0" points="589.5485,453.238 647.1765,453.238 659.1453,435.1704 601.5173,435.1704 		"/>
		<linearGradient id="SVGID_2_" gradientUnits="userSpaceOnUse" x1="659.4527" y1="339.2573" x2="728.5942" y2="339.2573">
			<stop  offset="0" style="stop-color:#399ECA"/>
			<stop  offset="1" style="stop-color:#303B71"/>
		</linearGradient>
		<path class="st1" d="M659.4527,347.9133c19.3712,0,38.1034,0,57.6281,0l11.5135-17.312c-19.6799,0-38.691,0-57.6281,0
			L659.4527,347.9133z"/>
		<linearGradient id="SVGID_3_" gradientUnits="userSpaceOnUse" x1="631.6538" y1="380.9654" x2="700.9163" y2="380.9654">
			<stop  offset="0" style="stop-color:#399ECA"/>
			<stop  offset="1" style="stop-color:#303B71"/>
		</linearGradient>
		<path class="st2" d="M631.6538,389.7124c19.4433,0,38.4307,0,57.628,0l11.6345-17.4939c-19.8067,0-38.6925,0-57.6281,0
			L631.6538,389.7124z"/>
		<linearGradient id="SVGID_4_" gradientUnits="userSpaceOnUse" x1="645.6638" y1="360.1025" x2="714.6564" y2="360.1025">
			<stop  offset="0" style="stop-color:#399ECA"/>
			<stop  offset="1" style="stop-color:#303B71"/>
		</linearGradient>
		<path class="st3" d="M645.6638,368.6466c19.3417,0,38.4312,0,57.6281,0l11.3646-17.0881c-19.3281,0-38.1672,0-57.6281,0
			L645.6638,368.6466z"/>
		<linearGradient id="SVGID_5_" gradientUnits="userSpaceOnUse" x1="618.1913" y1="401.5489" x2="687.0002" y2="401.5489">
			<stop  offset="0" style="stop-color:#399ECA"/>
			<stop  offset="1" style="stop-color:#303B71"/>
		</linearGradient>
		<path class="st4" d="M618.1913,409.9548c19.5181,0,38.3511,0,57.6281,0l11.1808-16.8118c-19.6016,0-38.62,0-57.628,0
			L618.1913,409.9548z"/>
		<linearGradient id="SVGID_6_" gradientUnits="userSpaceOnUse" x1="603.7034" y1="422.7574" x2="673.3002" y2="422.7574">
			<stop  offset="0" style="stop-color:#399ECA"/>
			<stop  offset="1" style="stop-color:#303B71"/>
		</linearGradient>
		<polygon class="st5" points="603.7034,431.7912 661.3314,431.7912 673.3002,413.7236 615.6722,413.7236 		"/>
		<linearGradient id="SVGID_7_" gradientUnits="userSpaceOnUse" x1="633.8677" y1="297.1052" x2="812.2112" y2="297.1052">
			<stop  offset="0" style="stop-color:#399ECA"/>
			<stop  offset="1" style="stop-color:#303B71"/>
		</linearGradient>
		<polygon class="st6" points="783.9972,288.1499 782.6559,290.1443 642.7565,290.1443 633.8677,303.5861 773.6091,303.5861 
			771.9412,306.0605 800.1553,306.0605 812.2112,288.1499 		"/>
		<linearGradient id="SVGID_8_" gradientUnits="userSpaceOnUse" x1="619.6376" y1="318.3862" x2="798.1449" y2="318.3862">
			<stop  offset="0" style="stop-color:#399ECA"/>
			<stop  offset="1" style="stop-color:#303B71"/>
		</linearGradient>
		<polygon class="st7" points="768.4863,311.3659 628.7229,311.3659 619.6376,325.1046 759.2365,325.1046 757.7319,327.3415 
			786.089,327.3415 798.1449,309.4309 769.7878,309.4309 		"/>
		<linearGradient id="SVGID_9_" gradientUnits="userSpaceOnUse" x1="449.7453" y1="296.9659" x2="629.4464" y2="296.9659">
			<stop  offset="0" style="stop-color:#399ECA"/>
			<stop  offset="1" style="stop-color:#303B71"/>
		</linearGradient>
		<path class="st8" d="M629.4464,288.0615c-56.2275,0-112.0265,0-167.9242,0l-11.7769,17.8089c56.2289,0,111.9811,0,167.9242,0
			L629.4464,288.0615z"/>
		<linearGradient id="SVGID_10_" gradientUnits="userSpaceOnUse" x1="421.8114" y1="349.6057" x2="594.8126" y2="349.6057">
			<stop  offset="0" style="stop-color:#399ECA"/>
			<stop  offset="1" style="stop-color:#303B71"/>
		</linearGradient>
		<path class="st9" d="M537.2161,351.5638l-46.2788-21.1723c0,0-57.3293,0.0134-57.4312-0.0015l-11.6945,17.6844
			c0.2097,0.0001,57.1155,0.0093,57.1155,0.0093l46.7542,20.7374c0,0,56.5175-0.094,57.7814-0.094l11.35-17.1634
			C575.1585,351.5638,537.2161,351.5638,537.2161,351.5638z"/>
		<linearGradient id="SVGID_11_" gradientUnits="userSpaceOnUse" x1="380.3475" y1="391.4308" x2="581.2296" y2="391.4308">
			<stop  offset="0" style="stop-color:#399ECA"/>
			<stop  offset="1" style="stop-color:#303B71"/>
		</linearGradient>
		<path class="st10" d="M449.4733,393.0164c0,0-57.3293,0.0134-57.4312-0.0015l-11.6945,17.6844
			c0.2097,0.0002,57.6874,0.0093,57.6874,0.0093l74.0632-21.2985l57.7814-0.094l11.35-17.1634c-19.6541,0-57.5965,0-57.5965,0
			L449.4733,393.0164z"/>
		<linearGradient id="SVGID_12_" gradientUnits="userSpaceOnUse" x1="435.6847" y1="318.1624" x2="615.4482" y2="318.1624">
			<stop  offset="0" style="stop-color:#399ECA"/>
			<stop  offset="1" style="stop-color:#303B71"/>
		</linearGradient>
		<path class="st11" d="M436.2382,326.2584l-0.5535,0.837c56.2248,0,111.8834,0,167.9488,0l0.6151-0.9301l11.1995-16.9359
			c-56.2689,0-111.9126,0-167.9488,0l-1.8731,2.8325l-0.6664,1.0078l-8.067,12.1989L436.2382,326.2584z"/>
		<linearGradient id="SVGID_13_" gradientUnits="userSpaceOnUse" x1="357.6789" y1="318.0063" x2="426.9965" y2="318.0063">
			<stop  offset="0" style="stop-color:#399ECA"/>
			<stop  offset="1" style="stop-color:#303B71"/>
		</linearGradient>
		<path class="st12" d="M415.9129,325.8916l6.6247-10.0178l0.2007-0.3034l2.7622-4.177l1.496-2.2622c-19.3994,0-38.3385,0-57.5795,0
			l-11.738,17.7502c19.591,0,38.6292,0,57.5795,0L415.9129,325.8916z"/>
		<linearGradient id="SVGID_14_" gradientUnits="userSpaceOnUse" x1="371.6381" y1="296.8592" x2="441.006" y2="296.8592">
			<stop  offset="0" style="stop-color:#399ECA"/>
			<stop  offset="1" style="stop-color:#303B71"/>
		</linearGradient>
		<path class="st13" d="M429.8722,304.7826l11.1338-16.8365c-19.4576,0-38.3859,0-57.5794,0l-11.7884,17.8264
			c19.4816,0,38.1685,0,57.5795,0L429.8722,304.7826z"/>
		<linearGradient id="SVGID_15_" gradientUnits="userSpaceOnUse" x1="301.9962" y1="401.9833" x2="372.0253" y2="401.9833">
			<stop  offset="0" style="stop-color:#399ECA"/>
			<stop  offset="1" style="stop-color:#303B71"/>
		</linearGradient>
		<path class="st14" d="M360.4697,410.4803h0.0096l11.546-17.4597h-0.0097l0.0097-0.0147c-19.6375,0-38.6529,0-58.1559,0
			l-11.8733,17.9548c19.9868,0,38.8703,0,58.1559,0L360.4697,410.4803z"/>
		<linearGradient id="SVGID_16_" gradientUnits="userSpaceOnUse" x1="343.6808" y1="339.2464" x2="412.8592" y2="339.2464">
			<stop  offset="0" style="stop-color:#399ECA"/>
			<stop  offset="1" style="stop-color:#303B71"/>
		</linearGradient>
		<path class="st15" d="M401.9586,346.9934l2.5841-3.9077l2.2364-3.3818l0.8203-1.2405l5.2599-7.9538
			c-19.4678,0-38.4926,0-57.5795,0l-11.5988,17.4737c0,0,38.621,0,57.6231,0L401.9586,346.9934z"/>
		<linearGradient id="SVGID_17_" gradientUnits="userSpaceOnUse" x1="330.1915" y1="359.9367" x2="399.0287" y2="359.9367">
			<stop  offset="0" style="stop-color:#399ECA"/>
			<stop  offset="1" style="stop-color:#303B71"/>
		</linearGradient>
		<path class="st16" d="M388.4243,367.4597l0.5433-0.8216l10.061-15.2142c-19.3533,0-38.3336,0-57.5244,0
			c-3.7072,5.6507-7.429,11.1058-11.3128,17.0256c19.552,0,38.6031,0,57.5782,0L388.4243,367.4597z"/>
		<linearGradient id="SVGID_18_" gradientUnits="userSpaceOnUse" x1="394.253" y1="381.0185" x2="462.96" y2="381.0185">
			<stop  offset="0" style="stop-color:#399ECA"/>
			<stop  offset="1" style="stop-color:#303B71"/>
		</linearGradient>
		<polygon class="st17" points="394.253,389.7484 451.414,389.7484 462.96,372.2887 405.7989,372.2887 		"/>
		<linearGradient id="SVGID_19_" gradientUnits="userSpaceOnUse" x1="316.0434" y1="381.0185" x2="385.1794" y2="381.0185">
			<stop  offset="0" style="stop-color:#399ECA"/>
			<stop  offset="1" style="stop-color:#303B71"/>
		</linearGradient>
		<path class="st18" d="M385.1794,372.2887c-19.2404,0-38.5686,0-57.5901,0l-11.5459,17.4597h57.59L385.1794,372.2887z"/>
		<linearGradient id="SVGID_20_" gradientUnits="userSpaceOnUse" x1="408.2909" y1="360.0844" x2="476.6093" y2="360.0844">
			<stop  offset="0" style="stop-color:#399ECA"/>
			<stop  offset="1" style="stop-color:#303B71"/>
		</linearGradient>
		<path class="st19" d="M476.6093,351.6485c-19.6013,0-38.3484,0-57.1613,0l-11.1571,16.8718c19.3444,0,38.0538,0,57.1612,0
			L476.6093,351.6485z"/>
		<linearGradient id="SVGID_21_" gradientUnits="userSpaceOnUse" x1="167.7888" y1="444.1196" x2="341.9558" y2="444.1196">
			<stop  offset="0" style="stop-color:#399ECA"/>
			<stop  offset="1" style="stop-color:#303B71"/>
		</linearGradient>
		<path class="st20" d="M205.3175,435.3548h-25.9331l-11.5956,17.5296h25.9331l1.1589-1.752c45.9287,0,92.1108,0,138.2611,0v-0.0748
			l0.6051-0.9151l5.0174-7.5872l2.3341-3.5297c0.2837-0.4531,0.5688-0.9086,0.8573-1.3696c-46.386,0-92.2752,0-138.1605,0
			L205.3175,435.3548z"/>
		<linearGradient id="SVGID_22_" gradientUnits="userSpaceOnUse" x1="182.1411" y1="422.3438" x2="356.4673" y2="422.3438">
			<stop  offset="0" style="stop-color:#399ECA"/>
			<stop  offset="1" style="stop-color:#303B71"/>
		</linearGradient>
		<path class="st21" d="M218.3252,415.6117l1.3446-2.0327h-25.9331l-11.5956,17.5295h25.9331l1.2526-1.8936
			c19.6243,0,39.0388,0,58.4518,0c25.0283,0,79.7289-0.0544,79.7289-0.0544l8.9598-13.5488
			C309.9383,415.6117,264.0689,415.6117,218.3252,415.6117z"/>
		<linearGradient id="SVGID_23_" gradientUnits="userSpaceOnUse" x1="366.7453" y1="422.9659" x2="546.4464" y2="422.9659">
			<stop  offset="0" style="stop-color:#399ECA"/>
			<stop  offset="1" style="stop-color:#303B71"/>
		</linearGradient>
		<path class="st22" d="M546.4464,414.0615c-56.2274,0-112.0265,0-167.9242,0l-11.7769,17.8089c56.2289,0,111.9811,0,167.9242,0
			L546.4464,414.0615z"/>
		<linearGradient id="SVGID_24_" gradientUnits="userSpaceOnUse" x1="352.6847" y1="444.1624" x2="532.4482" y2="444.1624">
			<stop  offset="0" style="stop-color:#399ECA"/>
			<stop  offset="1" style="stop-color:#303B71"/>
		</linearGradient>
		<path class="st23" d="M353.2382,452.2584l-0.5535,0.837c56.2248,0,111.8834,0,167.9488,0l0.6151-0.9301l11.1995-16.9359
			c-56.2689,0-111.9126,0-167.9488,0l-1.8731,2.8325l-0.6664,1.0078l-8.067,12.1989L353.2382,452.2584z"/>
	</g>
	<g>
		<path class="st24" d="M275.9304,469.8459h4.448v24.9238c0,3.3682-0.8582,6.0029-2.5745,7.9043
			c-1.7163,1.9023-4.0249,2.8525-6.9258,2.8525c-2.9817,0-5.3022-0.9023-6.9619-2.707c-1.6602-1.8047-2.49-4.3037-2.49-7.4941
			h4.4238c0,2.0146,0.4431,3.5859,1.3296,4.7139c0.886,1.1279,2.1189,1.6924,3.6985,1.6924c1.5308,0,2.7559-0.6123,3.6743-1.8379
			c0.9187-1.2246,1.3779-2.9404,1.3779-5.1484V469.8459z"/>
		<path class="st24" d="M305.5906,488.7747h-12.4495v12.4736h14.5044v3.7949h-18.9282v-35.1973h18.6863v3.7959h-14.2625v11.3369
			h12.4495V488.7747z"/>
		<path class="st24" d="M335.3477,473.6418h-9.2585v31.4014h-4.4238v-31.4014h-9.2344v-3.7959h22.9167V473.6418z"/>
		<path class="st24" d="M372.5007,473.6418h-9.2585v31.4014h-4.4238v-31.4014h-9.2344v-3.7959h22.9167V473.6418z"/>
		<path class="st24" d="M395.5613,488.7747h-12.4495v12.4736h14.5044v3.7949H378.688v-35.1973h18.6863v3.7959h-14.2625v11.3369
			h12.4495V488.7747z"/>
		<path class="st24" d="M426.3335,493.8508c-0.1936,3.7715-1.2534,6.6602-3.179,8.666c-1.926,2.0068-4.6455,3.0098-8.1587,3.0098
			c-3.5293,0-6.3335-1.3418-8.4124-4.0244c-2.0789-2.6836-3.1184-6.3223-3.1184-10.915v-6.3818
			c0-4.5762,1.0674-8.1943,3.2029-10.8535c2.1353-2.6592,5.0483-3.9893,8.739-3.9893c3.4001,0,6.0312,1.0156,7.8926,3.0459
			c1.8613,2.0312,2.8726,4.9404,3.0339,8.7266h-4.4722c-0.1934-2.8682-0.7979-4.915-1.813-6.1396
			c-1.0154-1.2246-2.5625-1.8369-4.6414-1.8369c-2.4016,0-4.2468,0.9385-5.5359,2.8154c-1.2896,1.8779-1.9338,4.6299-1.9338,8.2559
			v6.4541c0,3.5625,0.6001,6.2939,1.8008,8.1953c1.2004,1.9014,2.9531,2.8525,5.2578,2.8525c2.3044,0,3.9646-0.5723,4.98-1.7168
			c1.0151-1.1436,1.6438-3.1982,1.8855-6.1641H426.3335z"/>
		<path class="st24" d="M456.3562,505.0432h-4.448v-16.2686h-14.1658v16.2686h-4.4238v-35.1973h4.4238v15.1328h14.1658v-15.1328
			h4.448V505.0432z"/>
		<path class="st24" d="M487.9985,505.0432h-4.448l-14.0933-27.123v27.123h-4.448v-35.1973h4.448l14.1416,27.2441v-27.2441h4.3997
			V505.0432z"/>
		<path class="st24" d="M519.5444,490.5393c0,4.8027-1.0237,8.501-3.0701,11.0957c-2.0469,2.5947-4.9556,3.8916-8.7266,3.8916
			c-3.6262,0-6.4907-1.2607-8.5938-3.7832c-2.1033-2.5215-3.1953-6.0879-3.2756-10.6963v-6.624
			c0-4.7061,1.0396-8.3926,3.1184-11.0596s4.9797-4.001,8.7026-4.001c3.7063,0,6.5952,1.2773,8.6663,3.832
			c2.0706,2.5547,3.1304,6.2002,3.1787,10.9385V490.5393z M515.1206,484.3743c0-3.7227-0.6084-6.4902-1.825-8.3037
			c-1.217-1.8125-3.0823-2.7188-5.5962-2.7188c-2.4338,0-4.2751,0.918-5.5239,2.7559c-1.249,1.8369-1.8816,4.5439-1.8975,8.1221
			v6.3096c0,3.5938,0.6243,6.333,1.8733,8.2188c1.2488,1.8857,3.1143,2.8281,5.5964,2.8281c2.4814,0,4.3186-0.8701,5.5115-2.6104
			c1.1924-1.7412,1.813-4.4082,1.8613-8.002V484.3743z"/>
		<path class="st24" d="M531.8235,501.2483h13.8032v3.7949h-18.2512v-35.1973h4.448V501.2483z"/>
		<path class="st24" d="M573.208,490.5393c0,4.8027-1.0237,8.501-3.0701,11.0957c-2.0469,2.5947-4.9556,3.8916-8.7266,3.8916
			c-3.6262,0-6.4907-1.2607-8.5938-3.7832c-2.1033-2.5215-3.1953-6.0879-3.2756-10.6963v-6.624
			c0-4.7061,1.0396-8.3926,3.1184-11.0596s4.9797-4.001,8.7026-4.001c3.7063,0,6.5952,1.2773,8.6663,3.832
			c2.0706,2.5547,3.1304,6.2002,3.1787,10.9385V490.5393z M568.7842,484.3743c0-3.7227-0.6084-6.4902-1.825-8.3037
			c-1.217-1.8125-3.0823-2.7188-5.5962-2.7188c-2.4338,0-4.2751,0.918-5.5239,2.7559c-1.249,1.8369-1.8816,4.5439-1.8975,8.1221
			v6.3096c0,3.5938,0.6243,6.333,1.8733,8.2188c1.2488,1.8857,3.1143,2.8281,5.5964,2.8281c2.4814,0,4.3186-0.8701,5.5115-2.6104
			c1.1924-1.7412,1.813-4.4082,1.8613-8.002V484.3743z"/>
		<path class="st24" d="M603.0618,500.6682l-0.7737,0.9668c-2.2239,2.5947-5.4795,3.8916-9.7661,3.8916
			c-3.8037,0-6.7891-1.2607-8.9563-3.7832c-2.1677-2.5215-3.2756-6.0879-3.324-10.6963v-6.9141c0-4.9316,0.9871-8.626,2.9612-11.084
			c1.9741-2.457,4.9272-3.6865,8.8599-3.6865c3.3518,0,5.9746,0.9307,7.8684,2.792c1.8936,1.8613,2.937,4.5254,3.1306,7.9902
			h-4.4238c-0.1775-2.1924-0.7856-3.9043-1.8252-5.1377c-1.0396-1.2324-2.615-1.8486-4.7258-1.8486
			c-2.5305,0-4.3838,0.8262-5.5601,2.4775c-1.1765,1.6523-1.7888,4.291-1.8372,7.917v7.1797c0,3.5449,0.6768,6.2646,2.0305,8.1582
			s3.2957,2.8408,5.8259,2.8408c2.3848,0,4.1978-0.5781,5.439-1.7324l0.6528-0.6016v-8.085h-6.4302v-3.7959h10.854V500.6682z"/>
		<path class="st24" d="M615.8967,505.0432h-4.4236v-35.1973h4.4236V505.0432z"/>
		<path class="st24" d="M641.52,488.7747h-12.4495v12.4736h14.5044v3.7949h-18.9282v-35.1973h18.6863v3.7959h-14.2625v11.3369
			H641.52V488.7747z"/>
		<path class="st24" d="M665.5959,496.1477c0-1.7568-0.4756-3.1025-1.4263-4.0371c-0.9509-0.9346-2.6672-1.8457-5.1489-2.7324
			c-2.4819-0.8857-4.3796-1.8164-5.6929-2.792c-1.3137-0.9746-2.2966-2.0869-2.9492-3.3359c-0.6526-1.248-0.979-2.6787-0.979-4.29
			c0-2.7881,0.9307-5.085,2.792-6.8896s4.2988-2.708,7.3125-2.708c2.0627,0,3.8999,0.4609,5.5117,1.3818
			c1.6113,0.9209,2.8525,2.2021,3.7227,3.8438c0.8704,1.6416,1.3054,3.4453,1.3054,5.4111h-4.448
			c0-2.1758-0.5239-3.8594-1.5713-5.0527c-1.0476-1.1924-2.5544-1.7881-4.5205-1.7881c-1.7888,0-3.175,0.5-4.1577,1.501
			c-0.9832,1.001-1.4746,2.4053-1.4746,4.2139c0,1.4854,0.5317,2.7285,1.5955,3.7295c1.0635,1.001,2.7075,1.8965,4.9314,2.6875
			c3.4648,1.1465,5.9426,2.5576,7.4333,4.2334c1.4905,1.6768,2.2361,3.8682,2.2361,6.5752c0,2.8525-0.9268,5.1367-2.78,6.8535
			c-1.8533,1.7158-4.3752,2.5742-7.5662,2.5742c-2.0469,0-3.9368-0.4473-5.6689-1.3418c-1.7324-0.8945-3.0942-2.1514-4.0852-3.7705
			c-0.9912-1.6201-1.4868-3.4775-1.4868-5.5723h4.448c0,2.1758,0.6082,3.8672,1.8252,5.0762
			c1.2166,1.209,2.8726,1.8135,4.9678,1.8135c1.9497,0,3.4163-0.5,4.3994-1.499
			C665.1042,499.2336,665.5959,497.8723,665.5959,496.1477z"/>
		<path class="st24" d="M676.304,512.054l-2.5383-1.7412c1.5146-2.1113,2.3044-4.2871,2.3691-6.5264v-4.0371h4.3755v3.5049
			c0,1.6279-0.3989,3.2549-1.1965,4.8828C678.5159,509.7649,677.5127,511.0706,676.304,512.054z"/>
		<path class="st24" d="M704.5127,505.0432h-4.4236v-35.1973h4.4236V505.0432z"/>
		<path class="st24" d="M736.252,505.0432h-4.448l-14.0933-27.123v27.123h-4.448v-35.1973h4.448l14.1416,27.2441v-27.2441h4.3997
			V505.0432z"/>
		<path class="st24" d="M766.9758,493.8508c-0.1936,3.7715-1.2534,6.6602-3.179,8.666c-1.926,2.0068-4.6455,3.0098-8.1587,3.0098
			c-3.5293,0-6.3335-1.3418-8.4124-4.0244c-2.0789-2.6836-3.1184-6.3223-3.1184-10.915v-6.3818
			c0-4.5762,1.0674-8.1943,3.2029-10.8535c2.1353-2.6592,5.0483-3.9893,8.739-3.9893c3.4001,0,6.0312,1.0156,7.8926,3.0459
			c1.8613,2.0312,2.8726,4.9404,3.0339,8.7266h-4.4722c-0.1934-2.8682-0.7979-4.915-1.813-6.1396
			c-1.0154-1.2246-2.5625-1.8369-4.6414-1.8369c-2.4016,0-4.2468,0.9385-5.5359,2.8154c-1.2896,1.8779-1.9338,4.6299-1.9338,8.2559
			v6.4541c0,3.5625,0.6001,6.2939,1.8008,8.1953c1.2004,1.9014,2.9531,2.8525,5.2578,2.8525c2.3044,0,3.9646-0.5723,4.98-1.7168
			c1.0151-1.1436,1.6438-3.1982,1.8855-6.1641H766.9758z"/>
	</g>
</g>
</svg>
